<svg xmlns="http://www.w3.org/2000/svg" xmlns:xlink="http://www.w3.org/1999/xlink" width="500" zoomAndPan="magnify" viewBox="0 0 375 374.999991" height="500" preserveAspectRatio="xMidYMid meet" version="1.0"><defs><clipPath id="id1"><path d="M 37.5 37.5 L 337.5 37.5 L 337.5 337.5 L 37.5 337.5 Z M 37.5 37.5 " clip-rule="nonzero"/></clipPath></defs><g clip-path="url(#id1)"><path fill="#ff1616" d="M 37.5 187.5 C 37.5 104.671875 104.671875 37.5 187.5 37.5 C 270.328125 37.5 337.5 104.671875 337.5 187.5 C 337.5 270.328125 270.328125 337.5 187.5 337.5 C 104.671875 337.5 37.5 270.328125 37.5 187.5 Z M 37.5 187.5 " fill-opacity="1" fill-rule="nonzero"/></g><path fill="#fff4e4" d="M 270.753906 262.53125 C 270.753906 267.066406 267.066406 270.753906 262.53125 270.753906 L 112.46875 270.753906 C 107.933594 270.753906 104.246094 267.066406 104.246094 262.53125 L 104.246094 112.46875 C 104.246094 107.933594 107.933594 104.246094 112.46875 104.246094 L 262.589844 104.246094 C 267.125 104.246094 270.8125 107.933594 270.8125 112.46875 L 270.8125 262.53125 Z M 270.753906 262.53125 " fill-opacity="1" fill-rule="evenodd"/><path fill="#dbf0f5" d="M 124.683594 238.105469 L 250.316406 238.105469 C 251.222656 238.105469 252.070312 237.921875 252.855469 237.621094 L 121.902344 237.5 C 122.746094 237.863281 123.65625 238.105469 124.683594 238.105469 Z M 124.683594 238.105469 " fill-opacity="1" fill-rule="nonzero"/><path fill="#dbf0f5" d="M 250.257812 136.894531 L 124.683594 136.894531 C 120.875 136.894531 117.789062 139.980469 117.789062 143.789062 L 117.789062 202.070312 L 135.503906 184.417969 C 135.503906 184.417969 144.875 173.535156 152.675781 173.109375 C 160.472656 172.628906 168.878906 183.507812 168.878906 183.507812 L 181.757812 196.386719 L 183.871094 194.332031 C 183.871094 194.332031 191.492188 185.503906 197.839844 185.140625 C 204.1875 184.78125 211.019531 193.605469 211.019531 193.605469 L 217.851562 200.4375 C 218.9375 199.230469 224.621094 193.121094 229.519531 192.820312 C 234.898438 192.519531 240.765625 200.074219 240.765625 200.074219 L 257.148438 216.519531 L 257.148438 143.789062 C 257.148438 139.980469 254.066406 136.894531 250.257812 136.894531 Z M 192.277344 167.851562 C 191.492188 167.851562 190.703125 167.730469 189.980469 167.488281 C 188.890625 169.300781 186.53125 170.511719 183.75 170.511719 C 180.730469 170.511719 178.1875 169 177.28125 166.945312 C 174.621094 166.21875 172.628906 164.34375 172.628906 162.105469 C 172.628906 159.6875 174.804688 157.8125 177.765625 157.210938 C 178.308594 155.035156 180.730469 153.402344 183.75 153.402344 C 186.109375 153.402344 188.042969 154.367188 189.132812 155.820312 C 189.554688 155.757812 189.980469 155.636719 190.460938 155.636719 C 194.03125 155.636719 196.933594 157.8125 196.933594 160.472656 C 196.933594 160.65625 196.8125 160.777344 196.8125 160.957031 C 197.535156 161.683594 198.019531 162.53125 198.019531 163.558594 C 198.019531 165.914062 195.421875 167.851562 192.277344 167.851562 Z M 240.886719 171.296875 C 240.21875 172.746094 238.46875 173.835938 236.289062 173.835938 C 234.296875 173.835938 232.664062 172.929688 231.878906 171.71875 C 231.394531 171.902344 230.789062 171.960938 230.246094 171.960938 C 228.007812 171.960938 226.132812 170.570312 226.132812 168.878906 C 226.132812 168.214844 226.496094 167.546875 227.039062 167.066406 C 227.039062 166.945312 226.917969 166.824219 226.917969 166.703125 C 226.917969 164.765625 228.976562 163.253906 231.515625 163.253906 C 231.878906 163.253906 232.117188 163.375 232.480469 163.375 C 233.269531 162.347656 234.660156 161.625 236.289062 161.625 C 238.46875 161.625 240.160156 162.773438 240.582031 164.34375 C 242.699219 164.765625 244.269531 166.15625 244.210938 167.851562 C 244.210938 169.484375 242.820312 170.753906 240.886719 171.296875 Z M 240.886719 171.296875 " fill-opacity="1" fill-rule="nonzero"/><path fill="#6cc077" d="M 229.519531 192.820312 C 224.621094 193.121094 218.9375 199.230469 217.851562 200.4375 L 211.019531 193.605469 C 211.019531 193.605469 204.1875 184.78125 197.839844 185.140625 C 191.492188 185.503906 183.871094 194.332031 183.871094 194.332031 L 181.757812 196.386719 L 168.878906 183.507812 C 168.878906 183.507812 160.476562 172.628906 152.675781 173.109375 C 144.875 173.535156 135.503906 184.417969 135.503906 184.417969 L 117.789062 202.070312 L 117.789062 231.210938 C 117.789062 233.992188 119.484375 236.410156 121.902344 237.5 L 252.855469 237.621094 C 255.394531 236.59375 257.210938 234.113281 257.210938 231.210938 L 257.148438 231.210938 L 257.148438 216.519531 L 240.765625 200.074219 C 240.765625 200.074219 234.898438 192.519531 229.519531 192.820312 Z M 229.519531 192.820312 " fill-opacity="1" fill-rule="nonzero"/><path fill="#ff1616" d="M 196.8125 160.957031 C 196.8125 160.777344 196.933594 160.65625 196.933594 160.472656 C 196.933594 157.8125 194.03125 155.636719 190.460938 155.636719 C 189.980469 155.636719 189.554688 155.757812 189.132812 155.820312 C 188.042969 154.367188 186.109375 153.402344 183.75 153.402344 C 180.730469 153.402344 178.308594 155.035156 177.765625 157.210938 C 174.804688 157.8125 172.625 159.6875 172.625 162.105469 C 172.625 164.34375 174.621094 166.21875 177.28125 166.945312 C 178.1875 169 180.730469 170.511719 183.75 170.511719 C 186.53125 170.511719 188.890625 169.300781 189.980469 167.488281 C 190.703125 167.730469 191.492188 167.851562 192.277344 167.851562 C 195.421875 167.851562 198.019531 165.914062 198.019531 163.558594 C 198.019531 162.53125 197.535156 161.683594 196.8125 160.957031 Z M 196.8125 160.957031 " fill-opacity="1" fill-rule="nonzero"/><path fill="#ff1616" d="M 240.582031 164.34375 C 240.160156 162.773438 238.46875 161.625 236.289062 161.625 C 234.660156 161.625 233.269531 162.347656 232.480469 163.375 C 232.117188 163.375 231.878906 163.253906 231.515625 163.253906 C 228.976562 163.253906 226.917969 164.765625 226.917969 166.703125 C 226.917969 166.824219 227.039062 166.945312 227.039062 167.066406 C 226.496094 167.546875 226.132812 168.214844 226.132812 168.878906 C 226.132812 170.570312 228.007812 171.960938 230.246094 171.960938 C 230.789062 171.960938 231.394531 171.902344 231.878906 171.71875 C 232.664062 172.929688 234.296875 173.835938 236.289062 173.835938 C 238.46875 173.835938 240.21875 172.746094 240.886719 171.296875 C 242.820312 170.753906 244.210938 169.484375 244.210938 167.851562 C 244.269531 166.15625 242.699219 164.765625 240.582031 164.34375 Z M 240.582031 164.34375 " fill-opacity="1" fill-rule="nonzero"/></svg>