<svg xmlns="http://www.w3.org/2000/svg" xmlns:xlink="http://www.w3.org/1999/xlink" width="500" zoomAndPan="magnify" viewBox="0 0 375 374.999991" height="500" preserveAspectRatio="xMidYMid meet" version="1.0"><defs><clipPath id="id1"><path d="M 37 37 L 336 37 L 336 336 L 37 336 Z M 37 37 " clip-rule="nonzero"/></clipPath><clipPath id="id2"><path d="M 136.097656 393.308594 L -18.308594 136.097656 L 238.902344 -18.308594 L 393.308594 238.902344 Z M 136.097656 393.308594 " clip-rule="nonzero"/></clipPath><clipPath id="id3"><path d="M 136.097656 393.308594 L -18.308594 136.097656 L 238.902344 -18.308594 L 393.308594 238.902344 Z M 136.097656 393.308594 " clip-rule="nonzero"/></clipPath><clipPath id="id4"><path d="M 86.480469 83.722656 L 303.230469 83.722656 L 303.230469 300.472656 L 86.480469 300.472656 Z M 86.480469 83.722656 " clip-rule="nonzero"/></clipPath><clipPath id="id5"><path d="M 112.523438 93.1875 L 141 93.1875 L 141 281 L 112.523438 281 Z M 112.523438 93.1875 " clip-rule="nonzero"/></clipPath><clipPath id="id6"><path d="M 234 271 L 262.519531 271 L 262.519531 280.851562 L 234 280.851562 Z M 234 271 " clip-rule="nonzero"/></clipPath><clipPath id="id7"><path d="M 234 215 L 262.519531 215 L 262.519531 225 L 234 225 Z M 234 215 " clip-rule="nonzero"/></clipPath><clipPath id="id8"><path d="M 150 93.773438 L 262.519531 93.773438 L 262.519531 280.851562 L 150 280.851562 Z M 150 93.773438 " clip-rule="nonzero"/></clipPath><clipPath id="id9"><path d="M 234 243 L 262.519531 243 L 262.519531 253 L 234 253 Z M 234 243 " clip-rule="nonzero"/></clipPath></defs><g clip-path="url(#id1)"><g clip-path="url(#id2)"><g clip-path="url(#id3)"><path fill="#323232" d="M 58.894531 264.703125 C 59.308594 265.417969 59.792969 266.085938 60.339844 266.707031 C 60.890625 267.328125 61.496094 267.886719 62.15625 268.386719 C 62.816406 268.886719 63.519531 269.316406 64.265625 269.679688 C 65.011719 270.039062 65.785156 270.320312 66.585938 270.527344 C 67.386719 270.734375 68.203125 270.859375 69.03125 270.902344 C 69.855469 270.949219 70.679688 270.910156 71.5 270.792969 C 72.320312 270.671875 73.121094 270.472656 73.898438 270.195312 C 74.679688 269.917969 75.425781 269.566406 76.136719 269.140625 C 76.847656 268.714844 77.507812 268.222656 78.121094 267.664062 C 78.730469 267.105469 79.285156 266.492188 79.773438 265.824219 C 80.265625 265.160156 80.683594 264.449219 81.035156 263.699219 C 81.382812 262.949219 81.65625 262.167969 81.851562 261.363281 C 82.046875 260.558594 82.160156 259.742188 82.191406 258.914062 C 82.226562 258.085938 82.175781 257.265625 82.046875 256.445312 C 81.914062 255.628906 81.707031 254.832031 81.414062 254.054688 C 81.125 253.28125 80.765625 252.539062 80.328125 251.835938 C 44.722656 192.519531 63.847656 115.933594 123.164062 80.328125 C 182.480469 44.722656 259.066406 63.847656 294.671875 123.164062 C 295.089844 123.878906 295.570312 124.546875 296.121094 125.167969 C 296.667969 125.789062 297.273438 126.347656 297.933594 126.847656 C 298.59375 127.347656 299.296875 127.777344 300.042969 128.140625 C 300.789062 128.5 301.5625 128.78125 302.367188 128.988281 C 303.167969 129.195312 303.980469 129.320312 304.808594 129.367188 C 305.636719 129.410156 306.460938 129.371094 307.28125 129.253906 C 308.097656 129.132812 308.898438 128.9375 309.679688 128.65625 C 310.460938 128.378906 311.203125 128.027344 311.914062 127.601562 C 312.625 127.175781 313.285156 126.683594 313.898438 126.125 C 314.511719 125.566406 315.0625 124.953125 315.554688 124.285156 C 316.042969 123.621094 316.464844 122.910156 316.8125 122.160156 C 317.164062 121.410156 317.433594 120.632812 317.628906 119.824219 C 317.824219 119.019531 317.9375 118.203125 317.972656 117.375 C 318.003906 116.550781 317.957031 115.726562 317.824219 114.910156 C 317.695312 114.089844 317.484375 113.292969 317.195312 112.515625 C 316.90625 111.742188 316.542969 111 316.105469 110.296875 C 273.546875 39.398438 181.195312 16.332031 110.296875 58.894531 C 39.398438 101.453125 16.332031 193.804688 58.894531 264.703125 Z M 94.914062 304.359375 C 95.773438 305.808594 96.878906 307.03125 98.230469 308.035156 C 98.890625 308.523438 99.589844 308.941406 100.332031 309.292969 C 101.070312 309.644531 101.839844 309.917969 102.636719 310.117188 C 103.429688 310.320312 104.238281 310.4375 105.054688 310.480469 C 105.875 310.519531 106.691406 310.480469 107.5 310.363281 C 108.3125 310.242188 109.105469 310.042969 109.878906 309.769531 C 110.648438 309.496094 111.386719 309.144531 112.089844 308.726562 C 112.796875 308.304688 113.453125 307.820312 114.058594 307.269531 C 114.667969 306.71875 115.21875 306.117188 115.707031 305.457031 C 116.195312 304.800781 116.617188 304.097656 116.96875 303.355469 C 117.320312 302.613281 117.597656 301.84375 117.796875 301.046875 C 117.996094 300.253906 118.117188 299.445312 118.160156 298.625 C 118.199219 297.804688 118.160156 296.988281 118.039062 296.175781 C 117.917969 295.363281 117.722656 294.570312 117.445312 293.796875 C 117.167969 293.023438 116.820312 292.28125 116.398438 291.578125 C 115.976562 290.875 115.488281 290.21875 114.9375 289.609375 C 114.386719 289 113.78125 288.453125 113.121094 287.960938 C 112.460938 287.472656 111.761719 287.050781 111.019531 286.699219 C 110.277344 286.347656 109.507812 286.070312 108.710938 285.871094 C 107.914062 285.671875 107.105469 285.550781 106.285156 285.511719 C 105.464844 285.46875 104.648438 285.507812 103.835938 285.628906 C 103.023438 285.75 102.230469 285.949219 101.457031 286.222656 C 100.683594 286.5 99.945312 286.851562 99.238281 287.273438 C 98.535156 287.695312 97.878906 288.179688 97.269531 288.734375 C 96.660156 289.285156 96.113281 289.890625 95.621094 290.550781 C 94.890625 291.539062 94.316406 292.609375 93.902344 293.769531 C 93.488281 294.925781 93.25 296.117188 93.183594 297.347656 C 93.121094 298.574219 93.238281 299.785156 93.53125 300.980469 C 93.828125 302.175781 94.289062 303.300781 94.914062 304.359375 Z M 143.378906 327.175781 C 144.226562 328.632812 145.328125 329.867188 146.675781 330.882812 C 148.027344 331.894531 149.519531 332.605469 151.15625 333.015625 C 151.953125 333.210938 152.761719 333.332031 153.578125 333.371094 C 154.398438 333.410156 155.214844 333.371094 156.027344 333.25 C 156.839844 333.128906 157.628906 332.929688 158.402344 332.652344 C 159.175781 332.375 159.914062 332.027344 160.617188 331.601562 C 161.320312 331.179688 161.976562 330.695312 162.585938 330.140625 C 163.191406 329.589844 163.738281 328.984375 164.226562 328.324219 C 164.714844 327.667969 165.136719 326.964844 165.488281 326.222656 C 165.835938 325.480469 166.113281 324.710938 166.3125 323.917969 C 166.507812 323.121094 166.628906 322.3125 166.667969 321.492188 C 166.707031 320.671875 166.667969 319.855469 166.546875 319.046875 C 166.425781 318.234375 166.226562 317.441406 165.949219 316.667969 C 165.671875 315.898438 165.324219 315.160156 164.898438 314.457031 C 164.476562 313.75 163.992188 313.097656 163.4375 312.488281 C 162.886719 311.878906 162.28125 311.332031 161.621094 310.84375 C 160.964844 310.355469 160.261719 309.9375 159.519531 309.585938 C 158.777344 309.234375 158.007812 308.960938 157.214844 308.761719 C 156.417969 308.5625 155.609375 308.445312 154.789062 308.402344 C 153.96875 308.363281 153.152344 308.40625 152.34375 308.527344 C 151.53125 308.648438 150.738281 308.847656 149.964844 309.125 C 149.195312 309.398438 148.457031 309.75 147.75 310.171875 C 147.046875 310.59375 146.394531 311.082031 145.785156 311.632812 C 145.175781 312.183594 144.628906 312.789062 144.140625 313.449219 C 143.652344 314.109375 143.234375 314.808594 142.882812 315.550781 C 142.53125 316.292969 142.257812 317.0625 142.058594 317.859375 C 141.664062 319.4375 141.582031 321.035156 141.808594 322.644531 C 142.039062 324.257812 142.5625 325.765625 143.378906 327.175781 Z M 196.914062 329.691406 C 197.539062 330.785156 198.3125 331.761719 199.230469 332.621094 C 200.152344 333.480469 201.175781 334.183594 202.308594 334.734375 C 203.441406 335.285156 204.632812 335.65625 205.875 335.84375 C 207.121094 336.035156 208.367188 336.039062 209.609375 335.851562 C 210.421875 335.730469 211.214844 335.53125 211.988281 335.253906 C 212.761719 334.980469 213.5 334.628906 214.203125 334.207031 C 214.90625 333.785156 215.5625 333.296875 216.167969 332.746094 C 216.777344 332.195312 217.324219 331.589844 217.8125 330.929688 C 218.300781 330.269531 218.722656 329.570312 219.074219 328.828125 C 219.421875 328.085938 219.699219 327.316406 219.898438 326.519531 C 220.097656 325.722656 220.214844 324.914062 220.253906 324.09375 C 220.296875 323.273438 220.253906 322.460938 220.132812 321.648438 C 220.011719 320.835938 219.8125 320.042969 219.535156 319.269531 C 219.257812 318.496094 218.90625 317.757812 218.484375 317.054688 C 218.058594 316.351562 217.570312 315.695312 217.019531 315.085938 C 216.464844 314.480469 215.859375 313.933594 215.199219 313.445312 C 214.539062 312.957031 213.835938 312.539062 213.09375 312.1875 C 212.351562 311.835938 211.582031 311.5625 210.785156 311.367188 C 209.984375 311.167969 209.175781 311.050781 208.355469 311.011719 C 207.535156 310.972656 206.71875 311.015625 205.90625 311.136719 C 205.097656 311.257812 204.304688 311.457031 203.53125 311.738281 C 202.757812 312.015625 202.019531 312.363281 201.316406 312.789062 C 200.613281 313.210938 199.957031 313.699219 199.347656 314.253906 C 198.742188 314.804688 198.191406 315.410156 197.703125 316.070312 C 197.214844 316.730469 196.796875 317.433594 196.449219 318.175781 C 196.097656 318.921875 195.824219 319.691406 195.625 320.488281 C 195.429688 321.285156 195.308594 322.09375 195.273438 322.914062 C 195.234375 323.734375 195.277344 324.550781 195.398438 325.363281 C 195.632812 326.898438 196.140625 328.34375 196.914062 329.691406 Z M 106.050781 149.203125 C 106.929688 150.570312 108.03125 151.722656 109.355469 152.660156 C 110.683594 153.597656 112.136719 154.253906 113.71875 154.625 L 221.648438 181.582031 L 211.824219 220.90625 C 211.609375 221.710938 211.472656 222.523438 211.417969 223.355469 C 211.359375 224.183594 211.386719 225.011719 211.5 225.835938 C 211.609375 226.660156 211.800781 227.464844 212.070312 228.25 C 212.339844 229.039062 212.6875 229.789062 213.105469 230.507812 C 213.527344 231.222656 214.015625 231.894531 214.570312 232.511719 C 215.125 233.132812 215.734375 233.691406 216.398438 234.191406 C 217.0625 234.6875 217.773438 235.117188 218.523438 235.472656 C 219.273438 235.832031 220.054688 236.109375 220.859375 236.3125 C 221.667969 236.511719 222.484375 236.632812 223.316406 236.671875 C 224.148438 236.707031 224.972656 236.664062 225.796875 236.539062 C 226.617188 236.410156 227.417969 236.203125 228.199219 235.917969 C 228.980469 235.628906 229.722656 235.269531 230.433594 234.835938 C 231.140625 234.398438 231.800781 233.898438 232.410156 233.332031 C 233.015625 232.765625 233.5625 232.144531 234.046875 231.46875 C 234.53125 230.792969 234.945312 230.074219 235.289062 229.316406 C 235.628906 228.558594 235.894531 227.773438 236.078125 226.964844 L 248.929688 175.511719 C 249.128906 174.714844 249.246094 173.90625 249.285156 173.085938 C 249.324219 172.269531 249.285156 171.453125 249.164062 170.640625 C 249.042969 169.828125 248.84375 169.039062 248.566406 168.265625 C 248.289062 167.492188 247.941406 166.753906 247.519531 166.050781 C 247.09375 165.347656 246.609375 164.691406 246.058594 164.082031 C 245.503906 163.476562 244.898438 162.929688 244.242188 162.441406 C 243.582031 161.949219 242.878906 161.53125 242.136719 161.179688 C 241.394531 160.832031 240.628906 160.554688 239.832031 160.355469 L 119.777344 130.371094 C 118.558594 130.046875 117.320312 129.914062 116.0625 129.964844 C 114.804688 130.015625 113.582031 130.253906 112.394531 130.675781 C 111.207031 131.09375 110.109375 131.683594 109.097656 132.4375 C 108.089844 133.1875 107.214844 134.074219 106.472656 135.09375 C 105.730469 136.109375 105.15625 137.214844 104.746094 138.40625 C 104.339844 139.597656 104.117188 140.824219 104.078125 142.082031 C 104.042969 143.339844 104.191406 144.578125 104.527344 145.792969 C 104.863281 147.003906 105.371094 148.144531 106.050781 149.203125 Z M 247.550781 311.824219 C 247.972656 312.527344 248.460938 313.183594 249.011719 313.789062 C 249.566406 314.398438 250.171875 314.945312 250.828125 315.433594 C 251.488281 315.921875 252.191406 316.34375 252.933594 316.691406 C 253.675781 317.042969 254.445312 317.316406 255.242188 317.515625 C 256.035156 317.714844 256.84375 317.835938 257.664062 317.875 C 258.484375 317.914062 259.300781 317.875 260.113281 317.753906 C 260.921875 317.632812 261.714844 317.433594 262.488281 317.15625 C 263.261719 316.878906 264 316.53125 264.703125 316.105469 C 265.40625 315.683594 266.0625 315.199219 266.671875 314.644531 C 267.277344 314.09375 267.824219 313.488281 268.3125 312.828125 C 268.804688 312.167969 269.222656 311.46875 269.574219 310.726562 C 269.921875 309.984375 270.199219 309.214844 270.398438 308.417969 C 270.59375 307.621094 270.714844 306.8125 270.753906 305.996094 C 270.792969 305.175781 270.753906 304.359375 270.632812 303.546875 C 270.511719 302.734375 270.3125 301.941406 270.035156 301.171875 C 269.757812 300.398438 269.410156 299.660156 268.988281 298.957031 C 268.5625 298.253906 268.078125 297.597656 267.527344 296.988281 C 266.972656 296.382812 266.367188 295.832031 265.707031 295.34375 C 265.050781 294.855469 264.347656 294.4375 263.605469 294.085938 C 262.863281 293.734375 262.09375 293.460938 261.296875 293.261719 C 260.503906 293.0625 259.695312 292.945312 258.875 292.90625 C 258.054688 292.863281 257.238281 292.90625 256.425781 293.027344 C 255.613281 293.148438 254.824219 293.347656 254.050781 293.625 C 253.277344 293.898438 252.539062 294.25 251.835938 294.671875 C 251.132812 295.09375 250.476562 295.582031 249.867188 296.132812 C 249.261719 296.683594 248.710938 297.289062 248.222656 297.949219 C 247.734375 298.609375 247.316406 299.3125 246.964844 300.054688 C 246.617188 300.796875 246.339844 301.5625 246.140625 302.359375 C 245.941406 303.15625 245.824219 303.964844 245.785156 304.785156 C 245.746094 305.605469 245.785156 306.421875 245.90625 307.230469 C 246.027344 308.042969 246.226562 308.835938 246.503906 309.609375 C 246.78125 310.382812 247.128906 311.121094 247.550781 311.824219 Z M 287.230469 275.703125 C 288.089844 277.148438 289.195312 278.375 290.550781 279.378906 C 291.207031 279.867188 291.910156 280.285156 292.652344 280.636719 C 293.394531 280.984375 294.164062 281.261719 294.960938 281.457031 C 295.757812 281.65625 296.5625 281.777344 297.382812 281.816406 C 298.203125 281.855469 299.019531 281.816406 299.832031 281.695312 C 300.644531 281.574219 301.433594 281.375 302.207031 281.097656 C 302.980469 280.820312 303.71875 280.46875 304.421875 280.046875 C 305.125 279.625 305.78125 279.136719 306.390625 278.585938 C 306.996094 278.035156 307.546875 277.429688 308.035156 276.769531 C 308.523438 276.109375 308.945312 275.410156 309.296875 274.667969 C 309.648438 273.925781 309.925781 273.15625 310.125 272.359375 C 310.324219 271.5625 310.445312 270.753906 310.484375 269.933594 C 310.527344 269.113281 310.488281 268.296875 310.367188 267.484375 C 310.246094 266.671875 310.046875 265.878906 309.769531 265.105469 C 309.496094 264.332031 309.144531 263.59375 308.722656 262.886719 C 308.300781 262.183594 307.816406 261.527344 307.261719 260.917969 C 306.710938 260.308594 306.105469 259.761719 305.445312 259.273438 C 304.785156 258.785156 304.085938 258.363281 303.34375 258.015625 C 302.601562 257.664062 301.832031 257.390625 301.035156 257.191406 C 300.238281 256.992188 299.429688 256.871094 298.613281 256.832031 C 297.792969 256.792969 296.976562 256.835938 296.164062 256.957031 C 295.351562 257.078125 294.558594 257.273438 293.789062 257.550781 C 293.015625 257.828125 292.277344 258.179688 291.574219 258.601562 C 290.871094 259.023438 290.214844 259.511719 289.605469 260.0625 C 289 260.613281 288.449219 261.222656 287.960938 261.878906 C 287.226562 262.867188 286.652344 263.941406 286.234375 265.097656 C 285.816406 266.257812 285.574219 267.453125 285.507812 268.679688 C 285.445312 269.910156 285.558594 271.121094 285.851562 272.320312 C 286.144531 273.515625 286.605469 274.640625 287.230469 275.703125 Z M 310.082031 227.101562 C 310.929688 228.5625 312.03125 229.796875 313.378906 230.808594 C 314.730469 231.824219 316.222656 232.535156 317.859375 232.941406 C 318.65625 233.140625 319.464844 233.257812 320.28125 233.300781 C 321.101562 233.339844 321.917969 233.296875 322.730469 233.175781 C 323.542969 233.054688 324.332031 232.855469 325.105469 232.582031 C 325.878906 232.304688 326.617188 231.953125 327.320312 231.53125 C 328.023438 231.109375 328.679688 230.621094 329.289062 230.070312 C 329.894531 229.519531 330.441406 228.914062 330.929688 228.253906 C 331.421875 227.59375 331.839844 226.894531 332.191406 226.152344 C 332.539062 225.410156 332.816406 224.640625 333.015625 223.84375 C 333.210938 223.046875 333.332031 222.238281 333.371094 221.421875 C 333.410156 220.601562 333.371094 219.785156 333.25 218.972656 C 333.128906 218.160156 332.929688 217.371094 332.652344 216.597656 C 332.375 215.824219 332.027344 215.085938 331.601562 214.382812 C 331.179688 213.679688 330.695312 213.023438 330.140625 212.417969 C 329.589844 211.808594 328.984375 211.261719 328.324219 210.773438 C 327.667969 210.285156 326.964844 209.863281 326.222656 209.511719 C 325.480469 209.164062 324.710938 208.886719 323.917969 208.6875 C 323.121094 208.492188 322.3125 208.371094 321.492188 208.332031 C 320.671875 208.292969 319.855469 208.332031 319.046875 208.453125 C 318.234375 208.574219 317.441406 208.773438 316.667969 209.050781 C 315.898438 209.328125 315.160156 209.675781 314.457031 210.101562 C 313.75 210.523438 313.097656 211.007812 312.488281 211.5625 C 311.878906 212.113281 311.332031 212.71875 310.84375 213.378906 C 310.355469 214.035156 309.9375 214.738281 309.585938 215.480469 C 309.234375 216.222656 308.960938 216.992188 308.761719 217.785156 C 308.367188 219.367188 308.285156 220.960938 308.511719 222.574219 C 308.742188 224.1875 309.265625 225.695312 310.082031 227.101562 Z M 312.632812 173.433594 C 313.257812 174.527344 314.03125 175.503906 314.949219 176.363281 C 315.871094 177.222656 316.894531 177.925781 318.027344 178.476562 C 319.160156 179.027344 320.351562 179.394531 321.59375 179.585938 C 322.839844 179.777344 324.085938 179.78125 325.328125 179.59375 C 326.140625 179.472656 326.933594 179.273438 327.707031 178.996094 C 328.480469 178.71875 329.21875 178.371094 329.921875 177.949219 C 330.625 177.527344 331.28125 177.039062 331.886719 176.488281 C 332.496094 175.9375 333.042969 175.332031 333.53125 174.671875 C 334.019531 174.011719 334.441406 173.308594 334.792969 172.570312 C 335.140625 171.828125 335.417969 171.058594 335.617188 170.261719 C 335.816406 169.464844 335.933594 168.65625 335.972656 167.835938 C 336.011719 167.015625 335.972656 166.199219 335.851562 165.390625 C 335.730469 164.578125 335.53125 163.785156 335.253906 163.011719 C 334.980469 162.238281 334.628906 161.5 334.207031 160.796875 C 333.785156 160.09375 333.296875 159.4375 332.746094 158.832031 C 332.195312 158.222656 331.589844 157.675781 330.929688 157.1875 C 330.269531 156.699219 329.570312 156.277344 328.828125 155.925781 C 328.085938 155.578125 327.316406 155.300781 326.519531 155.101562 C 325.722656 154.902344 324.914062 154.785156 324.09375 154.746094 C 323.273438 154.703125 322.460938 154.746094 321.648438 154.867188 C 320.835938 154.988281 320.042969 155.1875 319.269531 155.464844 C 318.5 155.738281 317.761719 156.089844 317.054688 156.511719 C 316.351562 156.933594 315.695312 157.421875 315.089844 157.972656 C 314.480469 158.523438 313.933594 159.128906 313.445312 159.789062 C 312.957031 160.449219 312.535156 161.148438 312.1875 161.890625 C 311.835938 162.632812 311.558594 163.402344 311.363281 164.199219 C 311.164062 164.996094 311.042969 165.804688 311.003906 166.625 C 310.964844 167.441406 311.003906 168.257812 311.125 169.070312 C 311.355469 170.621094 311.855469 172.074219 312.632812 173.433594 Z M 312.632812 173.433594 " fill-opacity="1" fill-rule="nonzero"/></g></g></g><g clip-path="url(#id4)"><path fill="#fefefe" d="M 194.855469 83.722656 C 135 83.722656 86.480469 132.246094 86.480469 192.097656 C 86.480469 251.953125 135 300.472656 194.855469 300.472656 C 254.707031 300.472656 303.230469 251.953125 303.230469 192.097656 C 303.230469 132.246094 254.707031 83.722656 194.855469 83.722656 " fill-opacity="1" fill-rule="nonzero"/></g><g clip-path="url(#id5)"><path fill="#323232" d="M 112.523438 117.15625 L 112.523438 257.46875 C 112.523438 270.355469 123.042969 280.851562 135.960938 280.851562 L 140.652344 280.851562 L 140.652344 93.773438 L 135.960938 93.773438 C 123.042969 93.773438 112.523438 104.253906 112.523438 117.15625 " fill-opacity="1" fill-rule="nonzero"/></g><g clip-path="url(#id6)"><path fill="#323232" d="M 257.839844 271.503906 L 239.082031 271.503906 C 236.5 271.503906 234.402344 273.59375 234.402344 276.167969 C 234.402344 278.761719 236.5 280.851562 239.082031 280.851562 L 257.839844 280.851562 C 260.421875 280.851562 262.519531 278.761719 262.519531 276.167969 C 262.519531 273.59375 260.421875 271.503906 257.839844 271.503906 " fill-opacity="1" fill-rule="nonzero"/></g><g clip-path="url(#id7)"><path fill="#323232" d="M 257.839844 215.367188 L 239.082031 215.367188 C 236.5 215.367188 234.402344 217.472656 234.402344 220.050781 C 234.402344 222.625 236.5 224.734375 239.082031 224.734375 L 257.839844 224.734375 C 260.421875 224.734375 262.519531 222.625 262.519531 220.050781 C 262.519531 217.472656 260.421875 215.367188 257.839844 215.367188 " fill-opacity="1" fill-rule="nonzero"/></g><g clip-path="url(#id8)"><path fill="#323232" d="M 239.082031 93.773438 L 150.027344 93.773438 L 150.027344 280.851562 L 220.339844 280.851562 C 222.917969 280.851562 225.015625 278.761719 225.015625 276.167969 L 225.015625 215.367188 C 225.015625 207.210938 231.839844 196.664062 239.082031 196.664062 L 257.839844 196.664062 C 260.421875 196.664062 262.519531 194.570312 262.519531 191.980469 L 262.519531 117.15625 C 262.519531 104.253906 252 93.773438 239.082031 93.773438 " fill-opacity="1" fill-rule="nonzero"/></g><g clip-path="url(#id9)"><path fill="#323232" d="M 257.839844 243.433594 L 239.082031 243.433594 C 236.5 243.433594 234.402344 245.542969 234.402344 248.117188 C 234.402344 250.691406 236.5 252.785156 239.082031 252.785156 L 257.839844 252.785156 C 260.421875 252.785156 262.519531 250.691406 262.519531 248.117188 C 262.519531 245.542969 260.421875 243.433594 257.839844 243.433594 " fill-opacity="1" fill-rule="nonzero"/></g></svg>