<svg xmlns="http://www.w3.org/2000/svg" xmlns:xlink="http://www.w3.org/1999/xlink" width="500" zoomAndPan="magnify" viewBox="0 0 375 374.999991" height="500" preserveAspectRatio="xMidYMid meet" version="1.0"><defs><clipPath id="d907481a4d"><path d="M 26.484375 0 L 348.234375 0 L 348.234375 375 L 26.484375 375 Z M 26.484375 0 " clip-rule="nonzero"/></clipPath></defs><g clip-path="url(#d907481a4d)"><path fill="#ffffff" d="M 144.808594 168.027344 L 187.359375 107.589844 L 216.6875 149.246094 L 197.21875 176.890625 L 187.359375 162.886719 L 164.277344 195.671875 L 164.28125 195.683594 L 144.816406 223.332031 L 144.808594 223.320312 L 132.152344 241.300781 L 187.359375 319.710938 L 242.566406 241.300781 L 229.910156 223.320312 L 187.359375 283.753906 L 158.023438 242.089844 L 177.488281 214.441406 L 187.359375 228.460938 L 210.441406 195.671875 L 210.425781 195.648438 L 229.894531 168.003906 L 229.910156 168.027344 L 348.210938 -0.0078125 L 348.210938 55.289062 L 249.375 195.671875 L 262.03125 213.652344 L 262.035156 213.648438 L 281.5 241.296875 L 187.359375 375.007812 L 93.222656 241.300781 L 125.34375 195.671875 L 26.503906 55.289062 L 26.503906 -0.0078125 Z M 26.503906 91.429688 L 26.636719 91.429688 L 99.480469 194.894531 L 80.015625 222.542969 L 26.503906 146.539062 Z M 348.210938 91.429688 L 348.210938 146.539062 L 294.707031 222.539062 L 275.242188 194.890625 L 348.082031 91.429688 Z M 348.210938 91.429688 " fill-opacity="1" fill-rule="evenodd"/></g></svg>