<svg xmlns="http://www.w3.org/2000/svg" xmlns:xlink="http://www.w3.org/1999/xlink" width="500" zoomAndPan="magnify" viewBox="0 0 375 374.999991" height="500" preserveAspectRatio="xMidYMid meet" version="1.0"><defs><clipPath id="65c3f821eb"><path d="M 28.859375 106.363281 L 253.859375 106.363281 L 253.859375 331.363281 L 28.859375 331.363281 Z M 28.859375 106.363281 " clip-rule="nonzero"/></clipPath><clipPath id="a10ab911b4"><path d="M 196.140625 87 L 346.140625 87 L 346.140625 128 L 196.140625 128 Z M 196.140625 87 " clip-rule="nonzero"/></clipPath><clipPath id="e8b8c15620"><path d="M 251 43.636719 L 291 43.636719 L 291 186.136719 L 251 186.136719 Z M 251 43.636719 " clip-rule="nonzero"/></clipPath></defs><g clip-path="url(#65c3f821eb)"><path fill="#ff6b6b" d="M 253.859375 218.863281 C 253.859375 220.707031 253.8125 222.546875 253.722656 224.386719 C 253.632812 226.222656 253.5 228.058594 253.316406 229.890625 C 253.136719 231.722656 252.910156 233.550781 252.640625 235.371094 C 252.371094 237.195312 252.058594 239.007812 251.699219 240.8125 C 251.339844 242.617188 250.933594 244.414062 250.488281 246.199219 C 250.039062 247.988281 249.550781 249.761719 249.015625 251.523438 C 248.480469 253.285156 247.902344 255.03125 247.28125 256.765625 C 246.664062 258.5 246 260.214844 245.296875 261.917969 C 244.589844 263.617188 243.84375 265.300781 243.058594 266.964844 C 242.269531 268.628906 241.445312 270.273438 240.574219 271.898438 C 239.707031 273.519531 238.800781 275.121094 237.855469 276.703125 C 236.90625 278.28125 235.921875 279.835938 234.898438 281.367188 C 233.875 282.898438 232.816406 284.402344 231.71875 285.882812 C 230.625 287.359375 229.492188 288.8125 228.324219 290.234375 C 227.15625 291.65625 225.953125 293.050781 224.714844 294.414062 C 223.480469 295.78125 222.210938 297.113281 220.910156 298.414062 C 219.605469 299.714844 218.273438 300.984375 216.910156 302.222656 C 215.546875 303.457031 214.152344 304.660156 212.730469 305.828125 C 211.304688 306.996094 209.855469 308.128906 208.375 309.226562 C 206.898438 310.324219 205.390625 311.382812 203.859375 312.40625 C 202.332031 313.429688 200.773438 314.414062 199.195312 315.359375 C 197.617188 316.304688 196.015625 317.214844 194.390625 318.082031 C 192.769531 318.949219 191.125 319.777344 189.460938 320.5625 C 187.796875 321.351562 186.113281 322.097656 184.410156 322.800781 C 182.710938 323.507812 180.992188 324.167969 179.257812 324.789062 C 177.527344 325.410156 175.777344 325.988281 174.015625 326.519531 C 172.253906 327.054688 170.480469 327.546875 168.695312 327.992188 C 166.910156 328.441406 165.113281 328.84375 163.308594 329.203125 C 161.5 329.5625 159.6875 329.878906 157.867188 330.148438 C 156.046875 330.417969 154.21875 330.644531 152.386719 330.824219 C 150.554688 331.003906 148.71875 331.140625 146.878906 331.230469 C 145.039062 331.320312 143.199219 331.363281 141.359375 331.363281 C 139.519531 331.363281 137.679688 331.320312 135.839844 331.230469 C 134 331.140625 132.164062 331.003906 130.332031 330.824219 C 128.5 330.644531 126.671875 330.417969 124.851562 330.148438 C 123.03125 329.878906 121.21875 329.5625 119.410156 329.203125 C 117.605469 328.84375 115.808594 328.441406 114.023438 327.992188 C 112.238281 327.546875 110.464844 327.054688 108.703125 326.519531 C 106.941406 325.988281 105.191406 325.410156 103.460938 324.789062 C 101.726562 324.167969 100.007812 323.507812 98.308594 322.800781 C 96.605469 322.097656 94.925781 321.351562 93.257812 320.5625 C 91.59375 319.777344 89.949219 318.949219 88.328125 318.082031 C 86.703125 317.214844 85.101562 316.304688 83.523438 315.359375 C 81.945312 314.414062 80.386719 313.429688 78.859375 312.40625 C 77.328125 311.382812 75.820312 310.324219 74.34375 309.226562 C 72.863281 308.128906 71.414062 306.996094 69.988281 305.828125 C 68.566406 304.660156 67.171875 303.457031 65.808594 302.222656 C 64.445312 300.984375 63.113281 299.714844 61.808594 298.414062 C 60.507812 297.113281 59.238281 295.78125 58.003906 294.414062 C 56.765625 293.050781 55.5625 291.65625 54.394531 290.234375 C 53.226562 288.8125 52.09375 287.359375 51 285.882812 C 49.902344 284.402344 48.84375 282.898438 47.820312 281.367188 C 46.796875 279.835938 45.8125 278.28125 44.863281 276.703125 C 43.917969 275.121094 43.011719 273.519531 42.144531 271.898438 C 41.277344 270.273438 40.449219 268.628906 39.660156 266.964844 C 38.875 265.300781 38.128906 263.617188 37.421875 261.917969 C 36.71875 260.214844 36.054688 258.5 35.4375 256.765625 C 34.816406 255.03125 34.238281 253.285156 33.703125 251.523438 C 33.167969 249.761719 32.679688 247.988281 32.230469 246.199219 C 31.785156 244.414062 31.378906 242.617188 31.019531 240.8125 C 30.660156 239.007812 30.347656 237.195312 30.078125 235.371094 C 29.808594 233.550781 29.582031 231.722656 29.402344 229.890625 C 29.222656 228.058594 29.085938 226.222656 28.996094 224.386719 C 28.90625 222.546875 28.859375 220.707031 28.859375 218.863281 C 28.859375 217.023438 28.90625 215.183594 28.996094 213.34375 C 29.085938 211.507812 29.222656 209.671875 29.402344 207.839844 C 29.582031 206.007812 29.808594 204.179688 30.078125 202.359375 C 30.347656 200.535156 30.660156 198.722656 31.019531 196.917969 C 31.378906 195.113281 31.785156 193.316406 32.230469 191.53125 C 32.679688 189.742188 33.167969 187.96875 33.703125 186.207031 C 34.238281 184.445312 34.816406 182.699219 35.4375 180.964844 C 36.054688 179.230469 36.71875 177.515625 37.421875 175.8125 C 38.128906 174.113281 38.875 172.429688 39.660156 170.765625 C 40.449219 169.101562 41.277344 167.457031 42.144531 165.832031 C 43.011719 164.210938 43.917969 162.609375 44.863281 161.027344 C 45.8125 159.449219 46.796875 157.894531 47.820312 156.363281 C 48.84375 154.832031 49.902344 153.328125 51 151.847656 C 52.09375 150.371094 53.226562 148.917969 54.394531 147.496094 C 55.5625 146.074219 56.765625 144.679688 58.003906 143.316406 C 59.238281 141.949219 60.507812 140.617188 61.808594 139.316406 C 63.113281 138.015625 64.445312 136.746094 65.808594 135.507812 C 67.171875 134.273438 68.566406 133.070312 69.988281 131.902344 C 71.414062 130.734375 72.863281 129.601562 74.34375 128.503906 C 75.820312 127.40625 77.328125 126.347656 78.859375 125.324219 C 80.386719 124.300781 81.945312 123.316406 83.523438 122.371094 C 85.101562 121.425781 86.703125 120.515625 88.328125 119.648438 C 89.949219 118.78125 91.59375 117.953125 93.257812 117.167969 C 94.925781 116.378906 96.605469 115.632812 98.308594 114.929688 C 100.007812 114.222656 101.726562 113.5625 103.460938 112.941406 C 105.191406 112.320312 106.941406 111.742188 108.703125 111.210938 C 110.464844 110.675781 112.238281 110.183594 114.023438 109.738281 C 115.808594 109.289062 117.605469 108.886719 119.410156 108.527344 C 121.21875 108.167969 123.03125 107.851562 124.851562 107.582031 C 126.671875 107.3125 128.5 107.085938 130.332031 106.90625 C 132.164062 106.726562 134 106.589844 135.839844 106.5 C 137.679688 106.410156 139.519531 106.363281 141.359375 106.363281 C 143.199219 106.363281 145.039062 106.410156 146.878906 106.5 C 148.71875 106.589844 150.554688 106.726562 152.386719 106.90625 C 154.21875 107.085938 156.046875 107.3125 157.867188 107.582031 C 159.6875 107.851562 161.5 108.167969 163.308594 108.527344 C 165.113281 108.886719 166.910156 109.289062 168.695312 109.738281 C 170.480469 110.183594 172.253906 110.675781 174.015625 111.210938 C 175.777344 111.742188 177.527344 112.320312 179.257812 112.941406 C 180.992188 113.5625 182.710938 114.222656 184.410156 114.929688 C 186.113281 115.632812 187.796875 116.378906 189.460938 117.167969 C 191.125 117.953125 192.769531 118.78125 194.390625 119.648438 C 196.015625 120.515625 197.617188 121.425781 199.195312 122.371094 C 200.773438 123.316406 202.332031 124.300781 203.859375 125.324219 C 205.390625 126.347656 206.898438 127.40625 208.375 128.503906 C 209.855469 129.601562 211.304688 130.734375 212.730469 131.902344 C 214.152344 133.070312 215.546875 134.273438 216.910156 135.507812 C 218.273438 136.746094 219.605469 138.015625 220.910156 139.316406 C 222.210938 140.617188 223.480469 141.949219 224.714844 143.316406 C 225.953125 144.679688 227.15625 146.074219 228.324219 147.496094 C 229.492188 148.917969 230.625 150.371094 231.71875 151.847656 C 232.816406 153.328125 233.875 154.832031 234.898438 156.363281 C 235.921875 157.894531 236.90625 159.449219 237.855469 161.027344 C 238.800781 162.609375 239.707031 164.210938 240.574219 165.832031 C 241.445312 167.457031 242.269531 169.101562 243.058594 170.765625 C 243.84375 172.429688 244.589844 174.113281 245.296875 175.8125 C 246 177.515625 246.664062 179.230469 247.28125 180.964844 C 247.902344 182.699219 248.480469 184.445312 249.015625 186.207031 C 249.550781 187.96875 250.039062 189.742188 250.488281 191.53125 C 250.933594 193.316406 251.339844 195.113281 251.699219 196.917969 C 252.058594 198.722656 252.371094 200.535156 252.640625 202.359375 C 252.910156 204.179688 253.136719 206.007812 253.316406 207.839844 C 253.5 209.671875 253.632812 211.507812 253.722656 213.34375 C 253.8125 215.183594 253.859375 217.023438 253.859375 218.863281 Z M 253.859375 218.863281 " fill-opacity="1" fill-rule="nonzero"/></g><path fill="#ffffff" d="M 101.363281 170.839844 C 100.863281 170.839844 100.390625 170.957031 99.945312 171.1875 L 72.484375 185.355469 C 72.167969 185.519531 71.886719 185.734375 71.644531 185.996094 C 71.402344 186.257812 71.207031 186.554688 71.066406 186.882812 C 70.925781 187.210938 70.84375 187.554688 70.820312 187.910156 C 70.796875 188.269531 70.835938 188.621094 70.933594 188.964844 L 76.078125 207.019531 C 76.335938 207.933594 76.898438 208.589844 77.761719 208.988281 C 78.625 209.378906 79.488281 209.378906 80.351562 208.988281 L 94.957031 202.292969 L 94.957031 263.863281 C 94.957031 264.277344 95.035156 264.671875 95.191406 265.054688 C 95.347656 265.433594 95.574219 265.769531 95.863281 266.058594 C 96.15625 266.351562 96.492188 266.574219 96.871094 266.730469 C 97.25 266.890625 97.648438 266.96875 98.058594 266.96875 L 119.636719 266.96875 C 120.046875 266.96875 120.441406 266.890625 120.824219 266.730469 C 121.203125 266.574219 121.539062 266.351562 121.828125 266.058594 C 122.121094 265.769531 122.34375 265.433594 122.503906 265.054688 C 122.660156 264.671875 122.738281 264.277344 122.738281 263.863281 L 122.738281 173.941406 C 122.738281 173.53125 122.660156 173.136719 122.503906 172.753906 C 122.34375 172.375 122.121094 172.039062 121.828125 171.75 C 121.539062 171.457031 121.203125 171.234375 120.824219 171.074219 C 120.441406 170.917969 120.046875 170.839844 119.636719 170.839844 Z M 101.363281 170.839844 " fill-opacity="1" fill-rule="evenodd"/><path fill="#ffffff" d="M 177.824219 193.96875 C 178.480469 194.535156 178.992188 195.210938 179.351562 196 C 179.710938 196.789062 179.890625 197.617188 179.890625 198.484375 C 179.890625 199.363281 179.707031 200.207031 179.34375 201.007812 C 178.980469 201.8125 178.464844 202.503906 177.800781 203.085938 C 176.957031 203.808594 176.011719 204.347656 174.957031 204.703125 C 173.902344 205.058594 172.820312 205.199219 171.710938 205.132812 C 170.601562 205.203125 169.515625 205.066406 168.457031 204.722656 C 167.398438 204.378906 166.441406 203.855469 165.582031 203.144531 C 165.257812 202.859375 164.96875 202.539062 164.714844 202.1875 C 164.457031 201.839844 164.242188 201.464844 164.0625 201.070312 C 163.886719 200.675781 163.753906 200.265625 163.664062 199.84375 C 163.574219 199.417969 163.527344 198.992188 163.527344 198.558594 C 163.527344 198.125 163.574219 197.695312 163.664062 197.273438 C 163.753906 196.847656 163.886719 196.4375 164.0625 196.042969 C 164.242188 195.648438 164.457031 195.273438 164.714844 194.925781 C 164.96875 194.574219 165.257812 194.257812 165.582031 193.96875 C 166.023438 193.644531 166.484375 193.359375 166.972656 193.109375 C 167.457031 192.859375 167.960938 192.648438 168.480469 192.480469 C 169 192.308594 169.527344 192.179688 170.066406 192.09375 C 170.605469 192.007812 171.148438 191.964844 171.695312 191.964844 C 172.242188 191.964844 172.785156 192.007812 173.324219 192.09375 C 173.863281 192.179688 174.394531 192.308594 174.914062 192.480469 C 175.429688 192.648438 175.933594 192.859375 176.421875 193.109375 C 176.90625 193.359375 177.367188 193.644531 177.808594 193.96875 Z M 171.710938 244.933594 C 170.195312 245.035156 168.714844 244.855469 167.269531 244.394531 C 165.820312 243.933594 164.507812 243.222656 163.332031 242.265625 C 162.890625 241.847656 162.492188 241.390625 162.144531 240.890625 C 161.796875 240.394531 161.5 239.867188 161.257812 239.308594 C 161.019531 238.75 160.835938 238.171875 160.710938 237.578125 C 160.589844 236.980469 160.527344 236.378906 160.527344 235.769531 C 160.527344 235.164062 160.589844 234.5625 160.710938 233.964844 C 160.835938 233.371094 161.019531 232.792969 161.257812 232.234375 C 161.5 231.675781 161.796875 231.148438 162.144531 230.648438 C 162.492188 230.152344 162.890625 229.695312 163.332031 229.277344 C 164.515625 228.320312 165.835938 227.613281 167.285156 227.15625 C 168.738281 226.695312 170.222656 226.519531 171.742188 226.625 C 173.242188 226.53125 174.710938 226.710938 176.140625 227.167969 C 177.574219 227.628906 178.875 228.332031 180.042969 229.277344 C 180.488281 229.691406 180.890625 230.148438 181.242188 230.644531 C 181.59375 231.140625 181.890625 231.667969 182.132812 232.226562 C 182.378906 232.785156 182.5625 233.359375 182.683594 233.957031 C 182.808594 234.550781 182.871094 235.15625 182.871094 235.761719 C 182.871094 236.371094 182.808594 236.972656 182.683594 237.570312 C 182.5625 238.167969 182.378906 238.742188 182.132812 239.300781 C 181.890625 239.859375 181.59375 240.386719 181.242188 240.882812 C 180.890625 241.378906 180.488281 241.835938 180.042969 242.25 C 178.878906 243.207031 177.582031 243.914062 176.148438 244.378906 C 174.714844 244.84375 173.246094 245.027344 171.742188 244.933594 Z M 198.5 214.675781 C 199.84375 213.585938 201.039062 212.359375 202.089844 210.992188 C 203.144531 209.625 204.023438 208.152344 204.730469 206.578125 C 205.441406 205.003906 205.957031 203.367188 206.28125 201.671875 C 206.605469 199.976562 206.730469 198.269531 206.65625 196.542969 C 206.667969 194.628906 206.453125 192.738281 206.015625 190.871094 C 205.578125 189.003906 204.929688 187.214844 204.066406 185.503906 C 203.207031 183.792969 202.15625 182.203125 200.921875 180.742188 C 199.683594 179.277344 198.292969 177.980469 196.75 176.84375 C 194.957031 175.515625 193.066406 174.347656 191.074219 173.34375 C 189.085938 172.339844 187.023438 171.515625 184.890625 170.863281 C 182.757812 170.214844 180.582031 169.75 178.371094 169.472656 C 176.160156 169.195312 173.9375 169.105469 171.710938 169.210938 C 169.480469 169.105469 167.257812 169.191406 165.042969 169.46875 C 162.832031 169.75 160.65625 170.214844 158.523438 170.867188 C 156.386719 171.523438 154.324219 172.355469 152.335938 173.363281 C 150.34375 174.375 148.453125 175.546875 146.667969 176.882812 C 145.128906 178.019531 143.742188 179.320312 142.507812 180.785156 C 141.277344 182.25 140.230469 183.835938 139.375 185.546875 C 138.515625 187.257812 137.871094 189.046875 137.433594 190.910156 C 137 192.773438 136.785156 194.660156 136.796875 196.574219 C 136.722656 198.296875 136.84375 200 137.167969 201.695312 C 137.492188 203.386719 138.007812 205.015625 138.710938 206.589844 C 139.417969 208.160156 140.292969 209.628906 141.34375 210.996094 C 142.390625 212.363281 143.585938 213.589844 144.921875 214.675781 C 143.960938 215.277344 143.042969 215.9375 142.167969 216.660156 C 141.292969 217.382812 140.472656 218.160156 139.703125 218.992188 C 138.929688 219.820312 138.21875 220.699219 137.566406 221.628906 C 136.914062 222.554688 136.324219 223.519531 135.796875 224.523438 C 135.273438 225.527344 134.816406 226.5625 134.425781 227.628906 C 134.039062 228.691406 133.722656 229.777344 133.480469 230.886719 C 133.234375 231.992188 133.066406 233.109375 132.96875 234.242188 C 132.875 235.371094 132.855469 236.5 132.910156 237.632812 C 132.882812 239.808594 133.109375 241.953125 133.585938 244.074219 C 134.0625 246.195312 134.777344 248.230469 135.730469 250.183594 C 136.683594 252.140625 137.851562 253.957031 139.226562 255.636719 C 140.605469 257.316406 142.160156 258.816406 143.890625 260.132812 C 145.867188 261.644531 147.960938 262.972656 150.167969 264.117188 C 152.378906 265.265625 154.671875 266.207031 157.046875 266.953125 C 159.421875 267.699219 161.84375 268.230469 164.3125 268.550781 C 166.777344 268.871094 169.257812 268.976562 171.742188 268.863281 C 174.226562 268.96875 176.699219 268.859375 179.164062 268.535156 C 181.625 268.207031 184.042969 267.667969 186.410156 266.914062 C 188.777344 266.160156 191.0625 265.207031 193.261719 264.050781 C 195.464844 262.894531 197.546875 261.554688 199.511719 260.03125 C 201.234375 258.71875 202.785156 257.226562 204.160156 255.550781 C 205.535156 253.878906 206.699219 252.066406 207.65625 250.121094 C 208.609375 248.179688 209.328125 246.148438 209.8125 244.035156 C 210.292969 241.925781 210.527344 239.785156 210.511719 237.617188 C 210.566406 236.488281 210.542969 235.359375 210.449219 234.234375 C 210.351562 233.105469 210.183594 231.992188 209.941406 230.886719 C 209.695312 229.78125 209.378906 228.699219 208.992188 227.636719 C 208.605469 226.574219 208.152344 225.542969 207.625 224.539062 C 207.101562 223.535156 206.515625 222.574219 205.863281 221.648438 C 205.210938 220.726562 204.5 219.847656 203.734375 219.019531 C 202.964844 218.1875 202.148438 217.410156 201.277344 216.691406 C 200.40625 215.96875 199.492188 215.308594 198.53125 214.707031 Z M 198.5 214.675781 " fill-opacity="1" fill-rule="nonzero"/><g clip-path="url(#a10ab911b4)"><path fill="#ff6b6b" d="M 213.199219 127.902344 C 243.160156 125.003906 273.238281 123.09375 303.339844 122.21875 C 311.914062 121.960938 320.484375 121.796875 329.082031 121.722656 C 333.464844 121.675781 337.960938 119.859375 341.070312 116.746094 C 342.722656 115.214844 343.898438 113.398438 344.582031 111.277344 C 345.640625 109.246094 346.136719 107.078125 346.042969 104.742188 C 345.851562 100.355469 344.394531 95.804688 341.070312 92.738281 C 337.773438 89.695312 333.652344 87.714844 329.082031 87.761719 C 298.980469 88.070312 268.878906 89.367188 238.847656 91.699219 C 230.296875 92.359375 221.75 93.117188 213.199219 93.941406 C 210.867188 93.847656 208.675781 94.34375 206.671875 95.402344 C 204.578125 96.085938 202.738281 97.265625 201.210938 98.917969 C 199.558594 100.449219 198.382812 102.265625 197.699219 104.390625 C 196.640625 106.417969 196.144531 108.585938 196.238281 110.921875 C 196.425781 115.308594 197.886719 119.859375 201.210938 122.925781 C 204.339844 125.804688 208.792969 128.328125 213.199219 127.902344 Z M 213.199219 127.902344 " fill-opacity="1" fill-rule="nonzero"/></g><g clip-path="url(#e8b8c15620)"><path fill="#ff6b6b" d="M 251.121094 60.710938 C 254.300781 88.753906 256.089844 116.960938 256.464844 145.191406 C 256.585938 153.140625 256.5625 161.085938 256.441406 169.058594 C 256.371094 173.375 258.375 178.023438 261.414062 181.0625 C 262.945312 182.714844 264.757812 183.894531 266.878906 184.578125 C 268.902344 185.640625 271.070312 186.136719 273.402344 186.039062 C 277.78125 185.851562 282.328125 184.390625 285.390625 181.0625 C 288.453125 177.714844 290.289062 173.683594 290.359375 169.058594 C 290.785156 140.828125 289.796875 112.597656 287.394531 84.460938 C 286.710938 76.535156 285.933594 68.609375 285.039062 60.710938 C 285.132812 58.375 284.636719 56.183594 283.578125 54.175781 C 282.894531 52.078125 281.714844 50.238281 280.066406 48.707031 C 278.535156 47.054688 276.722656 45.875 274.601562 45.191406 C 272.578125 44.128906 270.410156 43.636719 268.078125 43.730469 C 263.699219 43.917969 259.152344 45.378906 256.089844 48.707031 C 255.195312 49.859375 254.324219 50.992188 253.429688 52.148438 C 251.898438 54.789062 251.121094 57.644531 251.121094 60.710938 Z M 251.121094 60.710938 " fill-opacity="1" fill-rule="nonzero"/></g></svg>