<svg xmlns="http://www.w3.org/2000/svg" xmlns:xlink="http://www.w3.org/1999/xlink" width="500" zoomAndPan="magnify" viewBox="0 0 375 374.999991" height="500" preserveAspectRatio="xMidYMid meet" version="1.0"><defs><clipPath id="78a4a7f410"><path d="M 71.25 37.5 L 303.75 37.5 L 303.75 337.5 L 71.25 337.5 Z M 71.25 37.5 " clip-rule="nonzero"/></clipPath></defs><rect x="-37.5" width="450" fill="#ffffff" y="-37.499999" height="449.999989" fill-opacity="1"/><rect x="-37.5" width="450" fill="#ffffff" y="-37.499999" height="449.999989" fill-opacity="1"/><rect x="-37.5" width="450" fill="#cdd1d1" y="-37.499999" height="449.999989" fill-opacity="1"/><g clip-path="url(#78a4a7f410)"><path fill="#9eb2b2" d="M 303.75 314.804688 C 303.75 234.773438 251.660156 169.933594 187.5 169.933594 C 123.339844 169.933594 71.25 234.773438 71.25 314.804688 C 71.25 327.285156 123.339844 337.457031 187.5 337.457031 C 251.660156 337.457031 303.75 327.285156 303.75 314.804688 Z M 187.5 37.542969 C 222.496094 37.542969 250.847656 65.890625 250.847656 100.890625 C 250.847656 135.886719 222.496094 164.238281 187.5 164.238281 C 152.503906 164.238281 124.152344 135.886719 124.152344 100.890625 C 124.152344 65.890625 152.503906 37.542969 187.5 37.542969 Z M 187.5 37.542969 " fill-opacity="1" fill-rule="evenodd"/></g></svg>