<svg xmlns="http://www.w3.org/2000/svg" xmlns:xlink="http://www.w3.org/1999/xlink" width="500" zoomAndPan="magnify" viewBox="0 0 375 374.999991" height="500" preserveAspectRatio="xMidYMid meet" version="1.0"><defs><clipPath id="fcbdbc11e2"><path d="M 1.40625 27 L 238 27 L 238 86 L 1.40625 86 Z M 1.40625 27 " clip-rule="nonzero"/></clipPath><clipPath id="dee3e19dcd"><path d="M 274 33 L 373.40625 33 L 373.40625 230 L 274 230 Z M 274 33 " clip-rule="nonzero"/></clipPath></defs><g clip-path="url(#fcbdbc11e2)"><path fill="#8ecaef" d="M 1.5 27.34375 L 1.5 85.605469 L 237.527344 85.605469 L 237.527344 27.34375 Z M 1.5 27.34375 " fill-opacity="1" fill-rule="nonzero"/></g><path fill="#ffd7d2" d="M 258.214844 165.039062 C 248.171875 130.125 209.894531 97.335938 209.894531 97.335938 L 136.992188 141.238281 C 125.730469 130.296875 89.574219 152.195312 57.753906 178.773438 L 78.808594 226.261719 C 91.949219 241.457031 112.15625 251.769531 120.148438 269.152344 C 124.234375 278.042969 130.492188 283.597656 132.398438 292.898438 C 133.6875 299.207031 153.660156 298.574219 154.550781 304.65625 C 156.527344 318.136719 158.125 330.660156 161.992188 340.425781 C 170.195312 361.085938 194.304688 375 194.304688 375 L 293.320312 375 C 293.320312 375 268.269531 199.941406 258.214844 165.039062 Z M 258.214844 165.039062 " fill-opacity="1" fill-rule="nonzero"/><path fill="#6fceae" d="M 197.226562 201.433594 C 195.695312 209.4375 193.933594 217.476562 191.972656 225.539062 C 176.167969 203.992188 159.316406 184.363281 141.304688 166.84375 C 130.046875 155.902344 111.808594 157.109375 102.1875 169.515625 L 102.1875 169.523438 C 94.519531 179.40625 94.894531 193.335938 103.082031 202.800781 C 116.222656 217.996094 134.804688 241.050781 142.796875 258.433594 C 146.882812 267.324219 149.492188 276.683594 151.394531 285.984375 L 140.914062 287.03125 L 59.289062 295.199219 C 59.289062 283.132812 45.699219 268.386719 33.636719 268.386719 L 37.339844 56.476562 L 191.972656 56.476562 C 207.332031 102.90625 206.753906 151.550781 197.226562 201.433594 Z M 197.226562 201.433594 " fill-opacity="1" fill-rule="nonzero"/><g clip-path="url(#dee3e19dcd)"><path fill="#c84242" d="M 373.3125 171.773438 L 323.792969 229.679688 L 274.273438 171.773438 L 306.597656 171.773438 L 306.597656 33.105469 L 340.988281 33.105469 L 340.988281 171.773438 Z M 373.3125 171.773438 " fill-opacity="1" fill-rule="nonzero"/></g><path fill="#53b79a" d="M 102.1875 169.523438 C 94.519531 179.40625 94.894531 193.335938 103.082031 202.800781 C 116.222656 217.996094 134.804688 241.050781 142.796875 258.433594 C 146.882812 267.324219 149.492188 276.683594 151.394531 285.984375 L 140.914062 287.03125 C 139.863281 273.726562 136.078125 259.117188 121.679688 246.171875 C 69.234375 199.074219 83.554688 150.046875 124.355469 150.046875 C 148.082031 150.046875 177.089844 172.378906 197.226562 201.433594 C 195.695312 209.4375 193.933594 217.476562 191.972656 225.539062 C 176.167969 203.992188 159.316406 184.363281 141.304688 166.84375 C 130.046875 155.902344 111.808594 157.109375 102.1875 169.515625 Z M 102.1875 169.523438 " fill-opacity="1" fill-rule="nonzero"/><path fill="#349370" d="M 161.582031 56.476562 C 162.339844 59.675781 162.734375 63.015625 162.734375 66.449219 C 162.734375 90.335938 143.386719 109.703125 119.511719 109.703125 C 95.636719 109.703125 76.28125 90.335938 76.28125 66.449219 C 76.28125 63.015625 76.6875 59.675781 77.4375 56.476562 Z M 161.582031 56.476562 " fill-opacity="1" fill-rule="nonzero"/><path fill="#349370" d="M 154.550781 304.65625 L 29.125 304.65625 L 29.125 56.476562 L 47.046875 56.476562 L 47.046875 264.136719 C 59.109375 264.136719 68.882812 273.914062 68.882812 285.984375 L 151.394531 285.984375 C 152.683594 292.289062 153.660156 298.574219 154.550781 304.65625 Z M 154.550781 304.65625 " fill-opacity="1" fill-rule="nonzero"/><path fill="#349370" d="M 209.894531 97.335938 L 209.894531 251.453125 C 204.078125 242.535156 198.101562 233.894531 191.972656 225.539062 L 191.972656 56.476562 L 209.894531 56.476562 Z M 209.894531 97.335938 " fill-opacity="1" fill-rule="nonzero"/><path fill="#c2e6f9" d="M 220.015625 59.476562 L 19.003906 59.476562 C 17.347656 59.476562 16.003906 58.132812 16.003906 56.476562 C 16.003906 54.816406 17.347656 53.476562 19.003906 53.476562 L 220.015625 53.476562 C 221.671875 53.476562 223.011719 54.816406 223.011719 56.476562 C 223.011719 58.132812 221.671875 59.476562 220.015625 59.476562 Z M 220.015625 59.476562 " fill-opacity="1" fill-rule="nonzero"/><path fill="#c84242" d="M 340.988281 21.050781 L 306.597656 21.050781 C 304.941406 21.050781 303.597656 19.710938 303.597656 18.050781 C 303.597656 16.394531 304.941406 15.050781 306.597656 15.050781 L 340.988281 15.050781 C 342.644531 15.050781 343.988281 16.394531 343.988281 18.050781 C 343.988281 19.710938 342.644531 21.050781 340.988281 21.050781 Z M 340.988281 21.050781 " fill-opacity="1" fill-rule="nonzero"/><path fill="#c84242" d="M 340.988281 6 L 306.597656 6 C 304.941406 6 303.597656 4.65625 303.597656 3 C 303.597656 1.34375 304.941406 0 306.597656 0 L 340.988281 0 C 342.644531 0 343.988281 1.34375 343.988281 3 C 343.988281 4.65625 342.644531 6 340.988281 6 Z M 340.988281 6 " fill-opacity="1" fill-rule="nonzero"/></svg>